<svg width="160" height="160" viewBox="0 0 160 160" fill="none" xmlns="http://www.w3.org/2000/svg">
  <defs>
    <pattern id="checkerboard" x="6.9" y="1" width="22" height="22" patternUnits="userSpaceOnUse">
      <rect x="0" y="0" width="11" height="11" fill="black"/>
      <rect x="11" y="11" width="11" height="11" fill="black"/>
      <rect x="11" y="0" width="11" height="11" fill="white"/>
      <rect x="0" y="11" width="11" height="11" fill="white"/>
    </pattern>
    <clipPath id="leftHalf">
      <rect x="0" y="0" width="40" height="80" />
    </clipPath>
    <clipPath id="rightHalf">
      <rect x="40" y="0" width="40" height="80" />
    </clipPath>
  </defs>
  <g transform="scale(2)">
    <path 
      id="mainShape"
      fill-rule="evenodd" 
      clip-rule="evenodd" 
      d="M61.4483 33.1532C61.4483 21.4803 51.9856 12.0176 40.3127 12.0176H39.6871C28.0143 12.0176 18.5515 21.4803 18.5515 33.1532C18.5515 37.7689 20.0625 42.2577 22.8536 45.9339L39.9576 68.4618C39.9788 68.4898 40.021 68.4898 40.0423 68.4618L57.1463 45.9339C59.9374 42.2577 61.4483 37.7689 61.4483 33.1532Z"
      stroke="#ffffff" 
      stroke-width="2"
    />
    
    <!-- Green left half -->
    <use href="#mainShape" clip-path="url(#leftHalf)" fill="#10AE23" />
    <!-- Checkerboard right half -->
    <use href="#mainShape" clip-path="url(#rightHalf)" fill="url(#checkerboard)" />
    
    <!-- White center line on top -->
    <line 
      x1="40" y1="12" 
      x2="40" y2="68.5" 
      stroke="#ffffff" 
      stroke-width="2"
    />
  </g>
</svg>
